# AST/ASF file generated using VICON BodyLanguage
# -----------------------------------------------
:version 1.10
:name VICON
:units
  mass 1.0
  length 0.45
  angle deg
:documentation
   .ast/.asf automatically generated from VICON data using
   VICON BodyBuilder and BodyLanguage model FoxedUp or BRILLIANT.MOD
:root
   order TX TY TZ RX RY RZ
   axis XYZ
   position 0 0 0  
   orientation 0 0 0 
:bonedata
  begin
     id 1 
     name lhipjoint
     direction 0.624716 -0.669793 0.401383 
     length 2.38238 
     axis 0 0 0  XYZ
  end
  begin
     id 2 
     name lfemur
     direction 0.34202 -0.939693 0  
     length 6.4574  
     axis 0 0 20  XYZ
    dof rx ry rz
    limits (-160.0 20.0)
           (-70.0 70.0)
           (-60.0 70.0)
  end
  begin
     id 3 
     name ltibia
     direction 0.34202 -0.939693 0   
     length 7.68739   
     axis 0 0 20   XYZ
    dof rx
    limits (-10.0 170.0)
  end
  begin
     id 4 
     name lfoot
     direction 0.0681309 -0.187188 0.979959   
     length 2.46615   
     axis -90 7.62852e-016 20   XYZ
    dof rx rz
    limits (-45.0 90.0)
           (-70.0 20.0)
  end
  begin
     id 5 
     name ltoes
     direction 1.53566e-011 -4.21819e-011 1   
     length 1.2376   
     axis -90 7.62852e-016 20   XYZ
    dof rx
    limits (-90.0 20.0)
  end
  begin
     id 6 
     name rhipjoint
     direction -0.644473 -0.655875 0.393043   
     length 2.43293  
     axis 0 0 0  XYZ 
  end
  begin
     id 7 
     name rfemur
     direction -0.34202 -0.939693 0   
     length 6.7025   
     axis 0 0 -20   XYZ
    dof rx ry rz
    limits (-160.0 20.0)
           (-70.0 70.0)
           (-70.0 60.0)
  end
  begin
     id 8 
     name rtibia
     direction -0.34202 -0.939693 0   
     length 7.80547   
     axis 0 0 -20   XYZ
    dof rx
    limits (-10.0 170.0)
 end
 begin
     id 9 
     name rfoot
     direction -0.0756734 -0.207911 0.975216   
     length 2.40315  
     axis -90 -7.62852e-016 -20   XYZ
    dof rx rz
    limits (-45.0 90.0)
           (-20.0 70.0)
  end
  begin
     id 10 
     name rtoes
     direction -1.5353e-011 -4.21879e-011 1   
     length 1.20477   
     axis -90 -7.62852e-016 -20   XYZ
    dof rx
    limits (-90.0 20.0)
  end
  begin
     id 11 
     name lowerback
     direction 0.0160353 0.987463 -0.157037   
     length 2.18572   
     axis 0 0 0   XYZ
    dof rx ry rz
    limits (-20.0 45.0)
           (-30.0 30.0)
           (-30.0 30.0)
  end
  begin
     id 12 
     name upperback
     direction -0.00499661 0.999756 0.0215076   
     length 2.18016   
     axis 0 0 0   XYZ
    dof rx ry rz
    limits (-20.0 45.0)
           (-30.0 30.0)
           (-30.0 30.0)
  end
  begin
     id 13 
     name thorax
     direction -0.00921346 0.995333 0.0960619   
     length 2.24923   
     axis 0 0 0   XYZ
    dof rx ry rz
    limits (-20.0 45.0)
           (-30.0 30.0)
           (-30.0 30.0)
  end
  begin
     id 14 
     name lowerneck
     direction 0.0274184 0.991181 0.12965   
     length 1.70911   
     axis 0 0 0   XYZ
    dof rx ry rz
    limits (-20.0 45.0)
           (-30.0 30.0)
           (-30.0 30.0)
  end
  begin
     id 15 
     name upperneck
     direction 0.0015627 0.999959 -0.00893559   
     length 1.69312   
     axis 0 0 0   XYZ
    dof rx ry rz
    limits (-20.0 45.0)
           (-30.0 30.0)
           (-30.0 30.0)
  end
  begin
     id 16
     name head
     direction -0.00230242 0.999856 -0.0168327  
     length 1.80241  
     axis 0 0 0   XYZ
    dof rx ry rz
    limits (-20.0 45.0)
           (-30.0 30.0)
           (-30.0 30.0)
  end
  begin
     id 17 
     name lclavicle
     direction 0.955523 0.290741 -0.0494489  
     length 3.84275  
     axis 0 0 0   XYZ
    dof ry rz
    limits (-20.0 10.0)
           (0.0 20.0)
  end
  begin
     id 18 
     name lhumerus
     direction 1 -4.48967e-011 -3.18382e-028   
     length 5.17714   
     axis 180 -30 -90   XYZ
    dof rx ry rz
    limits (-60.0 90.0)
           (-90.0 90.0)
           (-90.0 90.0)
  end
  begin
     id 19
     name lradius
     direction 1 -4.48968e-011 -2.22911e-027   
     length 3.43679   
     axis 180 -30 -90   XYZ
    dof rx
    limits (-10.0 170.0)
  end
  begin
     id 20
     name lwrist
     direction 1 -4.48951e-011 -6.32245e-027   
     length 1.7184   
     axis 3.57107e-015 90 90   XYZ
    dof ry
    limits (-180.0 0.0)
 end
  begin
     id 21 
     name lhand
     direction 1 -4.48924e-011 -1.26431e-026   
     length 0.573117   
     axis 8.06912e-015 90 90   XYZ
    dof rx rz
    limits (-90.0 90.0)
           (-45.0 45.0)
  end
  begin
     id 22 
     name lfingers
     direction 1 -4.49001e-011 -2.52965e-026   
     length 0.462062   
     axis 1.61381e-014 90 90   XYZ
    dof rx
    limits (0.0 90.0)
  end
  begin
     id 23
     name lthumb
     direction 0.707107 -6.35008e-011 0.707107   
     length 0.663431   
     axis -90 45 -1.62303e-014   XYZ
    dof rx rz
    limits (-45.0 45.0)
           (-45.0 45.0)
  end
  begin
     id 24 
     name rclavicle
     direction -0.963917 0.256881 -0.0698287   
     length 3.73057  
     axis 0 0 0   XYZ 
    dof ry rz
    limits (-10.0 20.0)
           (-20.0 0.0)
  end
  begin
     id 25 
     name rhumerus
     direction -1 -4.48962e-011 -2.73982e-027  
     length 5.23908   
     axis 180 30 90   XYZ
    dof rx ry rz
    limits (-90.0 60.0)
           (-90.0 90.0)
           (-90.0 90.0)
  end
  begin
     id 26 
     name rradius
     direction -1 -4.48968e-011 -4.33218e-027   
     length 3.46485   
     axis 180 30 90   XYZ
    dof rx
    limits (-10.0 170.0)
  end
  begin
     id 27 
     name rwrist
     direction -1 -4.48989e-011 -6.32372e-027   
     length 1.73243   
     axis 3.57107e-015 -90 -90   XYZ
    dof ry
    limits (-180.0 0.0)
  end
  begin
     id 28
     name rhand
     direction -1 -4.48948e-011 -1.26448e-026   
     length 0.608752   
     axis 8.06912e-015 -90 -90   XYZ
    dof rx rz
    limits (-90.0 90.0)
           (-45.0 45.0)
  end
  begin
     id 29
     name rfingers
     direction -1 -4.48962e-011 -2.52913e-026   
     length 0.490792   
     axis 1.61381e-014 -90 -90   XYZ
    dof rx
    limits (0.0 90.0)
  end
  begin
     id 30
     name rthumb
     direction -0.707107 -6.34878e-011 0.707107   
     length 0.704682   
     axis -90 -45 1.62303e-014   XYZ
    dof rx rz
    limits (-45.0 45.0)
           (-45.0 45.0)
  end
:hierarchy
  begin
    root lhipjoint rhipjoint lowerback
    lhipjoint lfemur
    lfemur ltibia
    ltibia lfoot
    lfoot ltoes
    rhipjoint rfemur
    rfemur rtibia
    rtibia rfoot
    rfoot rtoes
    lowerback upperback
    upperback thorax
    thorax lowerneck lclavicle rclavicle
    lowerneck upperneck
    upperneck head
    lclavicle lhumerus
    lhumerus lradius
    lradius lwrist
    lwrist lhand lthumb
    lhand lfingers
    rclavicle rhumerus
    rhumerus rradius
    rradius rwrist
    rwrist rhand rthumb
    rhand rfingers
  end

#!OML:ASF G:\JayActor3\Patient Classification 1\Patient 1\Session 6\male.ASF
:FULLY-SPECIFIED
:DEGREES
64
root 49.8 15.791 -26.3141 -0.377229 -60.41 -3.55652
lowerback 2.66958 -1.19846 0.656194
upperback 5.0747 -1.70392 0.938721
thorax 3.73687 -0.880086 0.586163
lowerneck -5.26663 1.27488 2.52672
upperneck 9.79205 1.7654 -3.24953
head 4.22861 0.793343 -1.45169
rclavicle -4.3596e-014 -2.5842e-015
rhumerus -31.4571 4.08359 -86.6911
rradius 30.7635
rwrist 0.99858
rhand -19.8094 -6.7468
rfingers 7.12502
rthumb 6.52381 -36.6263
lclavicle -4.3596e-014 -2.5842e-015
lhumerus -32.7068 -3.20808 86.0037
lradius 29.9612
lwrist 20.5384
lhand -11.8356 5.08588
lfingers 7.12502
lthumb 14.2155 34.5794
rfemur -9.4479 2.47655 20.1031
rtibia 34.9874
rfoot -22.5446 -14.4453
rtoes -2.91056
lfemur -0.25127 5.34643 -15.7603
ltibia 20.2854
lfoot -16.8215 12.7993
ltoes 1.2124
65
root 49.797 15.79 -26.3125 -0.321962 -60.4645 -3.63922
lowerback 2.65647 -1.20488 0.687394
upperback 5.0642 -1.71217 0.936462
thorax 3.73241 -0.882897 0.566175
lowerneck -5.29292 1.28873 2.55094
upperneck 9.84522 1.78309 -3.2608
head 4.25427 0.801876 -1.45944
rclavicle 1.79652e-014 -1.20762e-014
rhumerus -31.4744 4.06032 -86.7028
rradius 30.7551
rwrist 1.0012
rhand -19.9141 -6.69501
rfingers 7.12502
rthumb 6.42272 -36.5776
lclavicle 1.79652e-014 -1.20762e-014
lhumerus -32.7524 -3.21801 86.0173
lradius 29.8757
lwrist 20.4858
lhand -11.8627 5.11746
lfingers 7.12502
lthumb 14.1893 34.6128
rfemur -9.41249 2.44448 20.1394
rtibia 34.9676
rfoot -22.5161 -14.3881
rtoes -2.95213
lfemur -0.228249 5.35986 -15.7152
ltibia 20.3274
lfoot -16.8634 12.8292
ltoes 1.17635
66
root 49.7941 15.789 -26.3109 -0.267471 -60.5142 -3.72313
lowerback 2.64591 -1.21302 0.718363
upperback 5.05419 -1.72273 0.934914
thorax 3.72706 -0.88691 0.547087
lowerneck -5.31636 1.30255 2.57328
upperneck 9.88985 1.80053 -3.26878
head 4.27622 0.81046 -1.46567
rclavicle -4.84538e-016 1.49089e-016
rhumerus -31.4977 4.04003 -86.7154
rradius 30.7514
rwrist 1.00925
rhand -20.0196 -6.63551
rfingers 7.12502
rthumb 6.32085 -36.5212
lclavicle -4.84538e-016 1.49089e-016
lhumerus -32.79 -3.21653 86.0272
lradius 29.783
lwrist 20.4093
lhand -11.865 5.15588
lfingers 7.12502
lthumb 14.1871 34.6514
rfemur -9.37204 2.40834 20.1756
rtibia 34.9446
rfoot -22.4886 -14.33
rtoes -2.98924
lfemur -0.203278 5.36758 -15.6702
ltibia 20.3702
lfoot -16.9049 12.8611
ltoes 1.1385
67
root 49.7913 15.7882 -26.3093 -0.208334 -60.5637 -3.81148
lowerback 2.63699 -1.22092 0.74832
upperback 5.04483 -1.73312 0.936773
thorax 3.72159 -0.890967 0.532102
lowerneck -5.34151 1.31391 2.58818
upperneck 9.92627 1.81482 -3.27249
head 4.29526 0.817463 -1.46919
rclavicle -4.61553e-015 8.44835e-016
rhumerus -31.5231 4.02585 -86.7254
rradius 30.7526
rwrist 1.01403
rhand -20.1136 -6.57665
rfingers 7.12502
rthumb 6.23015 -36.465
lclavicle -4.61553e-015 8.44835e-016
lhumerus -32.8252 -3.20988 86.0372
lradius 29.6947
lwrist 20.3206
lhand -11.8426 5.19663
lfingers 7.12502
lthumb 14.2087 34.6907
rfemur -9.33218 2.37381 20.2138
rtibia 34.9202
rfoot -22.4626 -14.2671
rtoes -3.00784
lfemur -0.17877 5.37135 -15.6235
ltibia 20.4118
lfoot -16.9474 12.8955
ltoes 1.11572
68
root 49.7887 15.7875 -26.3079 -0.153047 -60.6114 -3.89395
lowerback 2.63162 -1.23159 0.771266
upperback 5.0357 -1.74725 0.940654
thorax 3.71464 -0.897224 0.523175
lowerneck -5.36745 1.32769 2.59262
upperneck 9.94935 1.83266 -3.27096
head 4.30949 0.826171 -1.46871
rclavicle 3.83468e-014 -7.8023e-015
rhumerus -31.5499 4.02289 -86.7355
rradius 30.7592
rwrist 1.01879
rhand -20.1661 -6.54371
rfingers 7.12502
rthumb 6.17941 -36.4336
lclavicle 3.83468e-014 -7.8023e-015
lhumerus -32.8561 -3.18282 86.0421
lradius 29.6077
lwrist 20.2216
lhand -11.7922 5.22524
lfingers 7.12502
lthumb 14.2572 34.7158
rfemur -9.29449 2.34458 20.2498
rtibia 34.8967
rfoot -22.4423 -14.2045
rtoes -3.00383
lfemur -0.15389 5.37335 -15.5802
ltibia 20.4481
lfoot -16.985 12.9341
ltoes 1.09036
69
root 49.7862 15.7871 -26.3067 -0.101009 -60.6579 -3.96859
lowerback 2.62556 -1.24374 0.784878
upperback 5.02706 -1.76349 0.94712
thorax 3.70896 -0.904937 0.522084
lowerneck -5.39368 1.34265 2.58935
upperneck 9.96068 1.85237 -3.26613
head 4.31943 0.835752 -1.46548
rclavicle -4.41675e-015 9.93923e-016
rhumerus -31.5727 4.03523 -86.745
rradius 30.7654
rwrist 1.01251
rhand -20.1731 -6.53595
rfingers 7.12502
rthumb 6.17267 -36.426
lclavicle -4.41675e-015 9.93923e-016
lhumerus -32.8815 -3.1419 86.0463
lradius 29.525
lwrist 20.1205
lhand -11.7203 5.23386
lfingers 7.12502
lthumb 14.3265 34.7196
rfemur -9.26371 2.32152 20.2828
rtibia 34.8761
rfoot -22.4214 -14.1482
rtoes -3.00269
lfemur -0.130521 5.37102 -15.542
ltibia 20.4777
lfoot -17.021 12.9764
ltoes 1.06802
